<svg data-v-423bf9ae="" xmlns="http://www.w3.org/2000/svg" viewBox="0 0 160.3918615103377 60" class="font"><!----><!----><!----><g data-v-423bf9ae="" id="87a8ba04-1ffa-42fb-bc3e-c247b98f06ce" fill="black" transform="matrix(4.702194624460447,0,0,4.702194624460447,-5.501566436230888,-16.269594056844795)"><path d="M5.98 7.99C7.03 7.71 7.58 7.04 7.58 6.05C7.58 4.67 6.46 3.82 4.61 3.82L1.17 3.82L1.17 13.15L5.03 13.15C7.12 13.15 8.41 12.12 8.41 10.47C8.41 9.11 7.54 8.21 5.98 7.99ZM6.13 6.17C6.13 7 5.53 7.51 4.52 7.51L2.65 7.51L2.65 4.93L4.56 4.93C5.57 4.93 6.13 5.37 6.13 6.17ZM4.84 12.05L2.65 12.05L2.65 8.72L4.80 8.72C6.07 8.72 6.87 9.32 6.87 10.37C6.88 11.40 6.11 12.05 4.84 12.05ZM10.65 5.26C11.16 5.26 11.56 4.86 11.56 4.36C11.56 3.86 11.16 3.46 10.65 3.46C10.14 3.46 9.73 3.86 9.73 4.36C9.73 4.86 10.14 5.26 10.65 5.26ZM9.96 13.15L11.35 13.15L11.35 6.53L9.96 6.53ZM16.73 6.36C15.79 6.36 15.08 6.74 14.69 7.32L14.51 6.53L13.27 6.53L13.27 13.15L14.69 13.15L14.69 9.11C14.80 7.95 15.59 7.57 16.33 7.57C17.35 7.57 17.79 8.30 17.79 9.38L17.79 13.15L19.21 13.15L19.21 9.06C19.21 7 17.88 6.36 16.73 6.36ZM23.86 12.16C22.41 12.16 22.02 12.07 22.02 11.62C22.02 11.40 22.23 11.20 22.50 11.07C22.87 11.20 23.26 11.26 23.70 11.26C25.35 11.26 26.56 10.31 26.56 8.79C26.56 8.20 26.35 7.69 26.02 7.28C26.18 6.99 26.63 6.88 27.07 7L27.27 6.01C26.66 5.86 25.71 5.92 25.27 6.71C24.84 6.47 24.30 6.36 23.70 6.36C22.02 6.36 20.84 7.32 20.84 8.79C20.84 9.52 21.12 10.12 21.60 10.54C21.16 10.82 20.81 11.26 20.81 11.84C20.81 12.22 21.01 12.60 21.51 12.88C20.80 13.17 20.37 13.75 20.37 14.44C20.37 15.72 21.80 16.22 23.74 16.22C25.78 16.22 27.11 15.53 27.11 14.19C27.11 12.67 25.51 12.16 23.86 12.16ZM23.70 7.44C24.60 7.44 25.11 8.05 25.11 8.79C25.11 9.55 24.59 10.18 23.70 10.18C22.81 10.18 22.28 9.55 22.28 8.79C22.28 8.05 22.79 7.44 23.70 7.44ZM23.73 15.17C22.69 15.17 21.88 14.98 21.88 14.20C21.88 13.78 22.11 13.40 22.65 13.21C22.91 13.26 23.20 13.27 23.52 13.27C24.78 13.27 25.59 13.45 25.59 14.20C25.59 14.90 24.86 15.17 23.73 15.17ZM31.75 13.34C33.83 13.34 35.28 11.81 35.28 9.84C35.28 7.89 33.83 6.36 31.75 6.36C29.63 6.36 28.19 7.89 28.19 9.84C28.19 11.81 29.63 13.34 31.75 13.34ZM31.75 12.13C30.52 12.13 29.66 11.14 29.66 9.84C29.66 8.56 30.52 7.57 31.75 7.57C32.96 7.57 33.82 8.56 33.82 9.84C33.82 11.14 32.96 12.13 31.75 12.13Z"></path></g><!----><!----></svg>